<?xml version="1.0" encoding="utf-8"?>
<!-- Generator: Adobe Illustrator 19.1.0, SVG Export Plug-In . SVG Version: 6.00 Build 0)  -->
<svg version="1.0" id="Layer_1" xmlns="http://www.w3.org/2000/svg" xmlns:xlink="http://www.w3.org/1999/xlink" x="0px" y="0px"
	 viewBox="0 0 99.2 99.2" style="enable-background:new 0 0 99.2 99.2;" xml:space="preserve">
<style type="text/css">
	.st0{fill:#006438;}
	.st1{fill:none;}
</style>
<g>
	<path class="st0" d="M54.6,80.7c-0.3,0-0.5,0.1-0.8,0.1C54.1,80.8,54.4,80.8,54.6,80.7L54.6,80.7z M54.6,80.7"/>
	<path class="st0" d="M55.3,80.6c-0.1,0-0.2,0-0.4,0.1C55,80.7,55.1,80.7,55.3,80.6L55.3,80.6z M55.3,80.6"/>
	<path class="st0" d="M53.2,80.9c-0.3,0-0.6,0.1-0.9,0.1C52.6,81,52.9,81,53.2,80.9L53.2,80.9z M53.2,80.9"/>
	<path class="st0" d="M53.8,80.9c-0.1,0-0.3,0-0.4,0.1C53.5,80.9,53.6,80.9,53.8,80.9L53.8,80.9z M53.8,80.9"/>
	<path class="st0" d="M56.1,80.5c-0.1,0-0.2,0-0.3,0.1C55.9,80.5,56,80.5,56.1,80.5L56.1,80.5z M56.1,80.5"/>
	<path class="st0" d="M58.2,79.9c-0.1,0-0.2,0-0.3,0.1C58.1,80,58.1,80,58.2,79.9L58.2,79.9z M58.2,79.9"/>
	<path class="st0" d="M57.6,80.1c-0.1,0-0.2,0.1-0.3,0.1C57.4,80.2,57.5,80.1,57.6,80.1L57.6,80.1z M57.6,80.1"/>
	<path class="st0" d="M56.8,80.3c-0.1,0-0.2,0-0.3,0.1C56.6,80.4,56.7,80.3,56.8,80.3L56.8,80.3z M56.8,80.3"/>
	<path class="st0" d="M52.2,81c-0.2,0-0.3,0-0.5,0C51.9,81.1,52.1,81,52.2,81L52.2,81z M52.2,81"/>
	<path class="st0" d="M80.9,49.9c0-17.3-14-31.3-31.3-31.3s-31.3,14-31.3,31.3s14,31.3,31.3,31.3c0.2,0,0.4,0,0.5,0V56.8h-6.7V49
		h6.7v-5.8c0-6.7,4.1-10.3,10-10.3c2.9,0,5.3,0.2,6,0.3v7h-4.1c-3.2,0-3.9,1.5-3.9,3.8v5H66l-1,7.8h-6.7v23.1
		C71.3,76.2,80.9,64.1,80.9,49.9L80.9,49.9z M80.9,49.9"/>
	<path class="st0" d="M51.7,81.1c-0.3,0-0.7,0-1,0C51,81.1,51.3,81.1,51.7,81.1L51.7,81.1z M51.7,81.1"/>
	<path class="st0" d="M50.7,81.1c-0.2,0-0.3,0-0.5,0C50.3,81.1,50.5,81.1,50.7,81.1L50.7,81.1z M50.7,81.1"/>
</g>
</svg>
