<?xml version="1.0" encoding="utf-8"?>
<!-- Generator: Adobe Illustrator 19.1.0, SVG Export Plug-In . SVG Version: 6.00 Build 0)  -->
<svg version="1.1" id="Layer_1" xmlns="http://www.w3.org/2000/svg" xmlns:xlink="http://www.w3.org/1999/xlink" x="0px" y="0px"
	 viewBox="-247 371.7 99.2 99.2" style="enable-background:new -247 371.7 99.2 99.2;" xml:space="preserve">
<style type="text/css">
	.st0{fill:#006438;}
</style>
<path class="st0" d="M-197.4,390.3c-17.3,0-31.3,14-31.3,31.3c0,17.3,14,31.3,31.3,31.3c17.3,0,31.3-14,31.3-31.3
	C-166.1,404.3-180.1,390.3-197.4,390.3z M-177.1,434.8h-6.8c-1.8,0.1-3.1-0.6-4.3-1.8c-0.9-0.9-1.8-2-2.7-2.9
	c-0.4-0.4-0.8-0.8-1.3-1.1c-0.9-0.6-1.8-0.4-2.3,0.6c-0.6,1-0.7,2.1-0.7,3.2c-0.1,1.6-0.6,2-2.2,2.1c-3.4,0.2-6.7-0.4-9.7-2.1
	c-2.7-1.5-4.8-3.7-6.5-6.1c-3.6-4.8-6.3-10-8.7-15.4c-0.6-1.2-0.1-1.9,1.2-1.9c2.2-0.1,4.5-0.1,6.6,0c0.9,0,1.5,0.5,1.8,1.4
	c1.2,2.9,2.7,5.8,4.5,8.3c0.5,0.7,1,1.4,1.7,1.9c0.8,0.6,1.4,0.4,1.8-0.5c0.3-0.6,0.3-1.1,0.4-1.8c0.2-2.1,0.2-4.1-0.1-6.1
	c-0.2-1.3-0.9-2.1-2.2-2.3c-0.6-0.1-0.6-0.4-0.3-0.8c0.6-0.6,1.1-1.1,2.1-1.1h7.7c1.2,0.3,1.5,0.8,1.6,2v8.5c0,0.5,0.3,1.9,1.1,2.2
	c0.7,0.3,1.1-0.3,1.5-0.8c1.8-1.9,3.1-4.3,4.3-6.6c0.5-1.1,0.9-2.1,1.4-3.3c0.3-0.8,0.8-1.2,1.8-1.2h7.4c0.2,0,0.4,0,0.6,0.1
	c1.3,0.2,1.6,0.8,1.2,1.9c-0.6,1.9-1.8,3.5-2.9,5.1c-1.3,1.7-2.6,3.4-3.8,5.1c-0.9,1.6-0.9,2.4,0.6,3.8c1.6,1.5,3.2,2.9,4.6,4.6
	c0.6,0.8,1.2,1.5,1.6,2.4C-175.4,433.3-176,434.7-177.1,434.8z"/>
</svg>
